<mxfile host="app.diagrams.net" modified="2024-04-15T09:46:30.993Z" agent="Mozilla/5.0 (Windows NT 10.0; Win64; x64) AppleWebKit/537.36 (KHTML, like Gecko) Chrome/123.0.0.0 Safari/537.36" etag="g85HnpqibEUIqro7zBay" version="24.2.5" type="github">
  <diagram name="页-1" id="Page-1">
    <mxGraphModel dx="2074" dy="1106" grid="1" gridSize="10" guides="1" tooltips="1" connect="1" arrows="1" fold="1" page="1" pageScale="1" pageWidth="827" pageHeight="1169" math="0" shadow="0">
      <root>
        <mxCell id="0" />
        <mxCell id="1" parent="0" />
        <UserObject label="&lt;div style=&quot;font-size: 1px&quot;&gt;&lt;font style=&quot;font-size:16.93px;font-family:SimSun;color:#000000;direction:ltr;letter-spacing:0px;line-height:120%;opacity:1&quot;&gt;全色影像&lt;br/&gt;&lt;/font&gt;&lt;/div&gt;" tags="背景" id="2">
          <mxCell style="verticalAlign=middle;align=center;overflow=width;vsdxID=1;fillColor=#FFFFFF;gradientColor=none;shape=stencil(nZBLDoAgDERP0z3SIyjew0SURgSD+Lu9kMZoXLhwN9O+tukAlrNpJg1SzDH4QW/URgNYgZTkjA4UkwJUgGXng+6DX1zLfmoymdXo17xh5zmRJ6Q42BWCfc2oJfdAr+Yv+AP9Cb7OJ3H/2JG1HNGz/84klThPVCc=);points=[];labelBackgroundColor=none;rounded=0;html=1;whiteSpace=wrap;" parent="1" vertex="1">
            <mxGeometry x="517" y="220" width="124" height="48" as="geometry" />
          </mxCell>
        </UserObject>
        <UserObject label="&lt;div style=&quot;font-size: 1px&quot;&gt;&lt;font style=&quot;font-size:16.93px;font-family:SimSun;color:#000000;direction:ltr;letter-spacing:0px;line-height:120%;opacity:1&quot;&gt;多光谱影像&lt;br/&gt;&lt;/font&gt;&lt;/div&gt;" tags="背景" id="3">
          <mxCell style="verticalAlign=middle;align=center;overflow=width;vsdxID=2;fillColor=#FFFFFF;gradientColor=none;shape=stencil(nZBLDoAgDERP0z3SIyjew0SURgSD+Lu9kMZoXLhwN9O+tukAlrNpJg1SzDH4QW/URgNYgZTkjA4UkwJUgGXng+6DX1zLfmoymdXo17xh5zmRJ6Q42BWCfc2oJfdAr+Yv+AP9Cb7OJ3H/2JG1HNGz/84klThPVCc=);points=[];labelBackgroundColor=none;rounded=0;html=1;whiteSpace=wrap;" parent="1" vertex="1">
            <mxGeometry x="200" y="220" width="124" height="48" as="geometry" />
          </mxCell>
        </UserObject>
        <UserObject label="&lt;div style=&quot;font-size: 1px&quot;&gt;&lt;font style=&quot;font-size:16.93px;font-family:SimSun;color:#000000;direction:ltr;letter-spacing:0px;line-height:120%;opacity:1&quot;&gt;影像融合&lt;br/&gt;&lt;/font&gt;&lt;/div&gt;" tags="背景" id="4">
          <mxCell style="verticalAlign=middle;align=center;overflow=width;vsdxID=6;fillColor=#FFFFFF;gradientColor=none;shape=stencil(nZBLDoAgDERP0z3SIyjew0SURgSD+Lu9kMZoXLhwN9O+tukAlrNpJg1SzDH4QW/URgNYgZTkjA4UkwJUgGXng+6DX1zLfmoymdXo17xh5zmRJ6Q42BWCfc2oJfdAr+Yv+AP9Cb7OJ3H/2JG1HNGz/84klThPVCc=);points=[];labelBackgroundColor=none;rounded=0;html=1;whiteSpace=wrap;" parent="1" vertex="1">
            <mxGeometry x="350" y="439" width="124" height="48" as="geometry" />
          </mxCell>
        </UserObject>
        <UserObject label="&lt;div style=&quot;font-size: 1px&quot;&gt;&lt;font style=&quot;font-size:16.93px;font-family:SimSun;color:#000000;direction:ltr;letter-spacing:0px;line-height:120%;opacity:1&quot;&gt;正射校正&lt;br/&gt;&lt;/font&gt;&lt;/div&gt;" tags="背景" id="5">
          <mxCell style="verticalAlign=middle;align=center;overflow=width;vsdxID=7;fillColor=#FFFFFF;gradientColor=none;shape=stencil(nZBLDoAgDERP0z3SIyjew0SURgSD+Lu9kMZoXLhwN9O+tukAlrNpJg1SzDH4QW/URgNYgZTkjA4UkwJUgGXng+6DX1zLfmoymdXo17xh5zmRJ6Q42BWCfc2oJfdAr+Yv+AP9Cb7OJ3H/2JG1HNGz/84klThPVCc=);points=[];labelBackgroundColor=none;rounded=0;html=1;whiteSpace=wrap;" parent="1" vertex="1">
            <mxGeometry x="350" y="365" width="124" height="48" as="geometry" />
          </mxCell>
        </UserObject>
        <UserObject label="&lt;div style=&quot;font-size: 1px&quot;&gt;&lt;font style=&quot;font-size:16.93px;font-family:SimSun;color:#000000;direction:ltr;letter-spacing:0px;line-height:120%;opacity:1&quot;&gt;影像裁剪&lt;br/&gt;&lt;/font&gt;&lt;/div&gt;" tags="背景" id="6">
          <mxCell style="verticalAlign=middle;align=center;overflow=width;vsdxID=8;fillColor=#FFFFFF;gradientColor=none;shape=stencil(nZBLDoAgDERP0z3SIyjew0SURgSD+Lu9kMZoXLhwN9O+tukAlrNpJg1SzDH4QW/URgNYgZTkjA4UkwJUgGXng+6DX1zLfmoymdXo17xh5zmRJ6Q42BWCfc2oJfdAr+Yv+AP9Cb7OJ3H/2JG1HNGz/84klThPVCc=);points=[];labelBackgroundColor=none;rounded=0;html=1;whiteSpace=wrap;" parent="1" vertex="1">
            <mxGeometry x="350" y="660" width="124" height="48" as="geometry" />
          </mxCell>
        </UserObject>
        <UserObject label="&lt;div style=&quot;font-size: 1px&quot;&gt;&lt;font style=&quot;font-size:16.93px;font-family:SimSun;color:#000000;direction:ltr;letter-spacing:0px;line-height:120%;opacity:1&quot;&gt;影像镶嵌&lt;br/&gt;&lt;/font&gt;&lt;/div&gt;" tags="背景" id="7">
          <mxCell style="verticalAlign=middle;align=center;overflow=width;vsdxID=9;fillColor=#FFFFFF;gradientColor=none;shape=stencil(nZBLDoAgDERP0z3SIyjew0SURgSD+Lu9kMZoXLhwN9O+tukAlrNpJg1SzDH4QW/URgNYgZTkjA4UkwJUgGXng+6DX1zLfmoymdXo17xh5zmRJ6Q42BWCfc2oJfdAr+Yv+AP9Cb7OJ3H/2JG1HNGz/84klThPVCc=);points=[];labelBackgroundColor=none;rounded=0;html=1;whiteSpace=wrap;" parent="1" vertex="1">
            <mxGeometry x="350" y="586" width="124" height="48" as="geometry" />
          </mxCell>
        </UserObject>
        <UserObject label="&lt;div style=&quot;font-size: 1px&quot;&gt;&lt;font style=&quot;font-size:16.93px;font-family:SimSun;color:#000000;direction:ltr;letter-spacing:0px;line-height:120%;opacity:1&quot;&gt;辐射定标&lt;br/&gt;&lt;/font&gt;&lt;/div&gt;" tags="背景" id="8">
          <mxCell style="verticalAlign=middle;align=center;overflow=width;vsdxID=10;fillColor=#FFFFFF;gradientColor=none;shape=stencil(nZBLDoAgDERP0z3SIyjew0SURgSD+Lu9kMZoXLhwN9O+tukAlrNpJg1SzDH4QW/URgNYgZTkjA4UkwJUgGXng+6DX1zLfmoymdXo17xh5zmRJ6Q42BWCfc2oJfdAr+Yv+AP9Cb7OJ3H/2JG1HNGz/84klThPVCc=);points=[];labelBackgroundColor=none;rounded=0;html=1;whiteSpace=wrap;" parent="1" vertex="1">
            <mxGeometry x="350" y="132" width="124" height="48" as="geometry" />
          </mxCell>
        </UserObject>
        <UserObject label="&lt;div style=&quot;font-size: 1px&quot;&gt;&lt;font style=&quot;font-size:16.93px;font-family:SimSun;color:#000000;direction:ltr;letter-spacing:0px;line-height:120%;opacity:1&quot;&gt;大气校正&lt;br/&gt;&lt;/font&gt;&lt;/div&gt;" tags="背景" id="9">
          <mxCell style="verticalAlign=middle;align=center;overflow=width;vsdxID=11;fillColor=#FFFFFF;gradientColor=none;shape=stencil(nZBLDoAgDERP0z3SIyjew0SURgSD+Lu9kMZoXLhwN9O+tukAlrNpJg1SzDH4QW/URgNYgZTkjA4UkwJUgGXng+6DX1zLfmoymdXo17xh5zmRJ6Q42BWCfc2oJfdAr+Yv+AP9Cb7OJ3H/2JG1HNGz/84klThPVCc=);points=[];labelBackgroundColor=none;rounded=0;html=1;whiteSpace=wrap;" parent="1" vertex="1">
            <mxGeometry x="350" y="292" width="124" height="48" as="geometry" />
          </mxCell>
        </UserObject>
        <UserObject label="&lt;div style=&quot;font-size: 1px&quot;&gt;&lt;font style=&quot;font-size:16.93px;font-family:SimSun;color:#000000;direction:ltr;letter-spacing:0px;line-height:120%;opacity:1&quot;&gt;均光匀色&lt;br/&gt;&lt;/font&gt;&lt;/div&gt;" tags="背景" id="10">
          <mxCell style="verticalAlign=middle;align=center;overflow=width;vsdxID=13;fillColor=#FFFFFF;gradientColor=none;shape=stencil(nZBLDoAgDERP0z3SIyjew0SURgSD+Lu9kMZoXLhwN9O+tukAlrNpJg1SzDH4QW/URgNYgZTkjA4UkwJUgGXng+6DX1zLfmoymdXo17xh5zmRJ6Q42BWCfc2oJfdAr+Yv+AP9Cb7OJ3H/2JG1HNGz/84klThPVCc=);points=[];labelBackgroundColor=none;rounded=0;html=1;whiteSpace=wrap;" parent="1" vertex="1">
            <mxGeometry x="350" y="512" width="124" height="48" as="geometry" />
          </mxCell>
        </UserObject>
        <UserObject label="&lt;div style=&quot;font-size: 1px&quot;&gt;&lt;font style=&quot;font-size:16.93px;font-family:SimSun;color:#000000;direction:ltr;letter-spacing:0px;line-height:120%;opacity:1&quot;&gt;DEM/GPS控制点&lt;br/&gt;&lt;/font&gt;&lt;/div&gt;" tags="背景" id="11">
          <mxCell style="verticalAlign=middle;align=center;overflow=width;vsdxID=28;fillColor=#FFFFFF;gradientColor=none;shape=stencil(nZBLDoAgDERP0z3SIyjew0SURgSD+Lu9kMZoXLhwN9O+tukAlrNpJg1SzDH4QW/URgNYgZTkjA4UkwJUgGXng+6DX1zLfmoymdXo17xh5zmRJ6Q42BWCfc2oJfdAr+Yv+AP9Cb7OJ3H/2JG1HNGz/84klThPVCc=);points=[];labelBackgroundColor=none;rounded=0;html=1;whiteSpace=wrap;" parent="1" vertex="1">
            <mxGeometry x="176" y="365" width="124" height="48" as="geometry" />
          </mxCell>
        </UserObject>
        <UserObject label="" tags="连接线" id="26">
          <mxCell style="vsdxID=30;edgeStyle=none;startArrow=none;endArrow=none;startSize=9;endSize=9;spacingTop=0;spacingBottom=0;spacingLeft=0;spacingRight=0;verticalAlign=middle;html=1;labelBackgroundColor=#ffffff;rounded=0;" parent="1" edge="1">
            <mxGeometry relative="1" as="geometry">
              <mxPoint x="-1" as="offset" />
              <Array as="points" />
              <mxPoint x="262" y="201" as="sourcePoint" />
              <mxPoint x="414" y="202" as="targetPoint" />
            </mxGeometry>
          </mxCell>
        </UserObject>
        <mxCell id="12" parent="1" vertex="1">
          <mxGeometry x="414" y="202" as="geometry" />
        </mxCell>
        <UserObject label="" tags="连接线" id="13">
          <mxCell style="vsdxID=15;edgeStyle=none;startArrow=block;endArrow=none;startSize=9;endSize=9;spacingTop=0;spacingBottom=0;spacingLeft=0;spacingRight=0;verticalAlign=middle;html=1;labelBackgroundColor=#ffffff;rounded=0;exitX=0.5080645161290323;exitY=0;exitDx=0;exitDy=0;exitPerimeter=0;" parent="1" source="2" target="12" edge="1">
            <mxGeometry relative="1" as="geometry">
              <mxPoint as="offset" />
              <Array as="points">
                <mxPoint x="580" y="202" />
              </Array>
            </mxGeometry>
          </mxCell>
        </UserObject>
        <mxCell id="14" parent="1" vertex="1">
          <mxGeometry x="262" y="201" as="geometry" />
        </mxCell>
        <UserObject label="" tags="连接线" id="15">
          <mxCell style="vsdxID=31;edgeStyle=none;startArrow=block;endArrow=none;startSize=9;endSize=9;spacingTop=0;spacingBottom=0;spacingLeft=0;spacingRight=0;verticalAlign=middle;html=1;labelBackgroundColor=#ffffff;rounded=0;exitX=0.5;exitY=0;exitDx=0;exitDy=0;exitPerimeter=0;" parent="1" source="3" target="14" edge="1">
            <mxGeometry relative="1" as="geometry">
              <mxPoint x="10" y="-1" as="offset" />
              <Array as="points" />
            </mxGeometry>
          </mxCell>
        </UserObject>
        <UserObject label="" tags="连接线" id="16">
          <mxCell style="vsdxID=29;edgeStyle=none;startArrow=none;endArrow=block;startSize=9;endSize=9;spacingTop=0;spacingBottom=0;spacingLeft=0;spacingRight=0;verticalAlign=middle;html=1;labelBackgroundColor=#FFFFFF;rounded=0;exitX=1;exitY=0.5;exitDx=0;exitDy=0;exitPerimeter=0;entryX=0;entryY=0.5;entryDx=0;entryDy=0;entryPerimeter=0;" parent="1" source="11" target="5" edge="1">
            <mxGeometry relative="1" as="geometry">
              <mxPoint as="offset" />
              <Array as="points" />
            </mxGeometry>
          </mxCell>
        </UserObject>
        <UserObject label="" tags="连接线" id="17">
          <mxCell style="vsdxID=27;edgeStyle=none;startArrow=none;endArrow=block;startSize=9;endSize=9;spacingTop=0;spacingBottom=0;spacingLeft=0;spacingRight=0;verticalAlign=middle;html=1;labelBackgroundColor=#FFFFFF;rounded=0;exitX=0.5;exitY=1;exitDx=0;exitDy=0;exitPerimeter=0;entryX=0.5;entryY=0;entryDx=0;entryDy=0;entryPerimeter=0;" parent="1" source="7" target="6" edge="1">
            <mxGeometry relative="1" as="geometry">
              <mxPoint x="10" y="-1" as="offset" />
              <Array as="points" />
            </mxGeometry>
          </mxCell>
        </UserObject>
        <UserObject label="" tags="连接线" id="18">
          <mxCell style="vsdxID=26;edgeStyle=none;startArrow=none;endArrow=block;startSize=9;endSize=9;spacingTop=0;spacingBottom=0;spacingLeft=0;spacingRight=0;verticalAlign=middle;html=1;labelBackgroundColor=#FFFFFF;rounded=0;exitX=0.5;exitY=1;exitDx=0;exitDy=0;exitPerimeter=0;entryX=0.5;entryY=0;entryDx=0;entryDy=0;entryPerimeter=0;" parent="1" source="10" target="7" edge="1">
            <mxGeometry relative="1" as="geometry">
              <mxPoint x="10" y="-1" as="offset" />
              <Array as="points" />
            </mxGeometry>
          </mxCell>
        </UserObject>
        <UserObject label="" tags="连接线" id="19">
          <mxCell style="vsdxID=25;edgeStyle=none;startArrow=none;endArrow=block;startSize=9;endSize=9;spacingTop=0;spacingBottom=0;spacingLeft=0;spacingRight=0;verticalAlign=middle;html=1;labelBackgroundColor=#FFFFFF;rounded=0;exitX=0.5;exitY=1;exitDx=0;exitDy=0;exitPerimeter=0;entryX=0.5;entryY=0;entryDx=0;entryDy=0;entryPerimeter=0;" parent="1" source="4" target="10" edge="1">
            <mxGeometry relative="1" as="geometry">
              <mxPoint x="10" y="-1" as="offset" />
              <Array as="points" />
            </mxGeometry>
          </mxCell>
        </UserObject>
        <UserObject label="" tags="连接线" id="20">
          <mxCell style="vsdxID=24;edgeStyle=none;startArrow=none;endArrow=block;startSize=9;endSize=9;spacingTop=0;spacingBottom=0;spacingLeft=0;spacingRight=0;verticalAlign=middle;html=1;labelBackgroundColor=#FFFFFF;rounded=0;exitX=0.5;exitY=1;exitDx=0;exitDy=0;exitPerimeter=0;entryX=0.5;entryY=0;entryDx=0;entryDy=0;entryPerimeter=0;" parent="1" source="5" target="4" edge="1">
            <mxGeometry relative="1" as="geometry">
              <mxPoint x="10" y="-1" as="offset" />
              <Array as="points" />
            </mxGeometry>
          </mxCell>
        </UserObject>
        <mxCell id="21" parent="1" vertex="1">
          <mxGeometry x="414" y="202" as="geometry" />
        </mxCell>
        <UserObject label="" tags="连接线" id="22">
          <mxCell style="vsdxID=20;edgeStyle=none;startArrow=none;endArrow=none;startSize=9;endSize=9;spacingTop=0;spacingBottom=0;spacingLeft=0;spacingRight=0;verticalAlign=middle;html=1;labelBackgroundColor=#ffffff;rounded=0;exitX=0.5161290322580645;exitY=1;exitDx=0;exitDy=0;exitPerimeter=0;" parent="1" source="8" target="21" edge="1">
            <mxGeometry relative="1" as="geometry">
              <mxPoint x="10" as="offset" />
              <Array as="points" />
            </mxGeometry>
          </mxCell>
        </UserObject>
        <UserObject label="" tags="连接线" id="23">
          <mxCell style="vsdxID=21;edgeStyle=none;startArrow=none;endArrow=block;startSize=9;endSize=9;spacingTop=0;spacingBottom=0;spacingLeft=0;spacingRight=0;verticalAlign=middle;html=1;labelBackgroundColor=#ffffff;rounded=0;exitX=0.5;exitY=1;exitDx=0;exitDy=0;exitPerimeter=0;entryX=0;entryY=0.5;entryDx=0;entryDy=0;entryPerimeter=0;" parent="1" source="3" target="9" edge="1">
            <mxGeometry relative="1" as="geometry">
              <mxPoint as="offset" />
              <Array as="points">
                <mxPoint x="262" y="316" />
              </Array>
            </mxGeometry>
          </mxCell>
        </UserObject>
        <UserObject label="" tags="连接线" id="24">
          <mxCell style="vsdxID=22;edgeStyle=none;startArrow=none;endArrow=block;startSize=9;endSize=9;spacingTop=0;spacingBottom=0;spacingLeft=0;spacingRight=0;verticalAlign=middle;html=1;labelBackgroundColor=#FFFFFF;rounded=0;exitX=0.5;exitY=1;exitDx=0;exitDy=0;exitPerimeter=0;entryX=1;entryY=0.5;entryDx=0;entryDy=0;entryPerimeter=0;" parent="1" source="2" target="5" edge="1">
            <mxGeometry relative="1" as="geometry">
              <mxPoint y="-1" as="offset" />
              <Array as="points">
                <mxPoint x="579" y="389.6" />
              </Array>
            </mxGeometry>
          </mxCell>
        </UserObject>
        <UserObject label="" tags="连接线" id="25">
          <mxCell style="vsdxID=23;edgeStyle=none;startArrow=none;endArrow=block;startSize=9;endSize=9;spacingTop=0;spacingBottom=0;spacingLeft=0;spacingRight=0;verticalAlign=middle;html=1;labelBackgroundColor=#FFFFFF;rounded=0;exitX=0.5;exitY=1;exitDx=0;exitDy=0;exitPerimeter=0;entryX=0.5;entryY=0;entryDx=0;entryDy=0;entryPerimeter=0;" parent="1" source="9" target="5" edge="1">
            <mxGeometry relative="1" as="geometry">
              <mxPoint x="10" y="-1" as="offset" />
              <Array as="points" />
            </mxGeometry>
          </mxCell>
        </UserObject>
      </root>
    </mxGraphModel>
  </diagram>
</mxfile>
